<?xml version="1.0" encoding="UTF-8"?><svg version="1.1" width="36px" height="37px" viewBox="0 0 36.0 37.0" xmlns="http://www.w3.org/2000/svg" xmlns:xlink="http://www.w3.org/1999/xlink"><defs><clipPath id="i0"><path d="M1440,0 L1440,900 L0,900 L0,0 L1440,0 Z"></path></clipPath><filter id="i1" x="-56.25%" y="-56.25%" filterUnits="userSpaceOnUse" width="187.5%" height="187.5%"><feGaussianBlur stdDeviation="3" in="SourceAlpha" result="i2"></feGaussianBlur><feOffset dx="2" dy="2" in="i2" result="i3"></feOffset><feColorMatrix values="0 0 0 0.2 0 0 0 0 0.2 0 0 0 0 0.2 0 0 0 0 0.2 0" type="matrix" in="i3"></feColorMatrix></filter><clipPath id="i4"><path d="M15,0 C17.7614237,0 20,2.23857625 20,5 L20,15 C20,17.7614237 17.7614237,20 15,20 L5,20 C2.23857625,20 0,17.7614237 0,15 L0,5 C0,2.23857625 2.23857625,0 5,0 L15,0 Z"></path></clipPath><clipPath id="i5"><path d="M0.209209442,0.219669914 C0.488155365,-0.0732233047 0.940416064,-0.0732233047 1.21936199,0.219669914 L5,4.18933983 L8.78063801,0.219669914 C9.05958394,-0.0732233047 9.51184464,-0.0732233047 9.79079056,0.219669914 C10.0697365,0.512563133 10.0697365,0.987436867 9.79079056,1.28033009 L5.50507627,5.78033009 C5.22613035,6.0732233 4.77386965,6.0732233 4.49492373,5.78033009 L0.209209442,1.28033009 C-0.0697364807,0.987436867 -0.0697364807,0.512563133 0.209209442,0.219669914 Z"></path></clipPath></defs><g transform="translate(-445.0 -854.0)"><g clip-path="url(#i0)"><g transform="translate(0.0 854.7)"><g transform="translate(112.0 0.0)"><g transform="translate(333.0 0.0)"><g transform="translate(8.0 8.0)"><path d="M5,0 L15,0 C17.7614237,0 20,2.23857625 20,5 L20,15 C20,17.7614237 17.7614237,20 15,20 L5,20 C2.23857625,20 0,17.7614237 0,15 L0,5 C0,2.23857625 2.23857625,0 5,0 Z" stroke="none" fill="#000000" filter="url(#i1)"></path><g clip-path="url(#i4)"><polygon points="0,0 20,0 20,20 0,20 0,0" stroke="none" fill="#FFFFFF"></polygon></g></g><g transform="translate(13.0 16.0)"><g clip-path="url(#i5)"><polygon points="2.77555756e-17,2.77555756e-17 10,2.77555756e-17 10,6 2.77555756e-17,6 2.77555756e-17,2.77555756e-17" stroke="none" fill="#333333"></polygon></g></g></g></g></g></g></g></svg>