<?xml version="1.0" encoding="UTF-8"?><svg version="1.1" width="26px" height="26px" viewBox="0 0 26.0 26.0" xmlns="http://www.w3.org/2000/svg" xmlns:xlink="http://www.w3.org/1999/xlink"><defs><clipPath id="i0"><path d="M1440,0 L1440,900 L0,900 L0,0 L1440,0 Z"></path></clipPath><clipPath id="i1"><path d="M15.3239116,0.626764966 C16.1451947,-0.208921655 17.6510776,-0.208921655 18.4723607,0.626764966 L25.3148085,7.45013419 C25.7266334,7.8664723 25.9994083,8.28582081 26,8.98242702 C26,9.67933428 25.7242666,10.2371611 25.3151043,10.6534992 L22.3060012,13.5765962 L16.4212239,19.4258004 C16.2848365,19.4258004 16.2848365,19.5645798 16.1484491,19.5645798 C14.0970165,21.235652 11.9059421,21.0938622 10.1272843,19.8421385 L9.99089688,19.7033592 C9.99089688,19.5645798 9.85450946,19.5645798 9.85450946,19.5645798 L0.684895656,10.5147199 C0.272774857,10.0956724 0,9.54055491 0,8.98242702 C0,8.42460018 0.27573337,7.8664723 0.684895656,7.45013419 L7.38799754,0.765544337 C7.79982249,0.346195827 8.48175963,0.0686370857 9.03026786,0.0686370857 C9.57848023,0.0686370857 10.1243258,0.349206225 10.6725382,0.765544337 L12.9997041,3.13352379 Z M14.2360665,17.19359 C13.9632917,16.9160312 13.6875583,16.7772518 13.4147835,16.9160312 C13.1390501,16.9160312 13.0026627,17.1966004 12.8662752,17.4741591 C12.8662752,17.7517178 12.8662752,18.1710663 13.1390501,18.3098457 L14.0967206,19.2843117 C14.5058829,19.5618705 15.0540953,19.5618705 15.3268701,19.2843117 C15.7360324,19.006753 15.7360324,18.4486251 15.1937371,18.1680559 Z M16.4238866,15.1064807 C16.1511117,14.8289219 15.8753783,14.6901426 15.6026035,14.8289219 C15.3268701,14.8289219 15.1904827,15.10919 15.0540953,15.3867488 C15.0540953,15.6646086 15.0540953,16.083656 15.3268701,16.2224354 L16.2845406,17.1969014 C16.6934071,17.4744601 17.2419153,17.4744601 17.5146902,17.1969014 C17.926811,16.9163323 17.926811,16.3612148 17.3812612,16.0806456 Z M18.475615,13.0187693 C18.2028402,12.7412106 17.6543319,12.7412106 17.3815571,13.0187693 C17.1087822,13.2966291 17.1087822,13.8544559 17.3815571,14.1320147 L18.3392276,15.1064807 C18.748094,15.3840394 19.2966023,15.3840394 19.5693771,15.1064807 C19.9785394,14.8289219 19.9785394,14.2707941 19.4332855,13.9932353 Z M17.3753442,2.02057947 C17.1025694,1.74302073 16.826836,1.74302073 16.5540611,2.02057947 L13.544958,4.94367641 L11.0814046,7.31165586 C11.3541795,7.5892146 11.7663003,7.72799397 12.1754626,7.72799397 C12.5846248,7.72799397 12.9967456,7.5892146 13.2695205,7.31165586 L14.6393118,5.91784136 C14.7783619,5.77906199 14.9147493,5.64028262 15.1875242,5.64028262 C15.4632575,5.64028262 15.599645,5.77906199 15.7360324,5.77906199 L21.7571972,11.7670456 L24.2207506,9.39906618 C24.357138,9.25998577 24.357138,8.8409383 24.2174962,8.84424973 Z"></path></clipPath></defs><g transform="translate(-806.0 -22.0)"><g clip-path="url(#i0)"><g transform="translate(795.0 22.0)"><g transform="translate(11.0 0.0)"><g transform="translate(0.0 3.8999999999999986)"><g clip-path="url(#i1)"><polygon points="0,0 26,0 26,20.8 0,20.8 0,0" stroke="none" fill="#BBBBBB"></polygon></g></g></g></g></g></g></svg>