<?xml version="1.0" encoding="UTF-8"?><svg version="1.1" width="26px" height="26px" viewBox="0 0 26.0 26.0" xmlns="http://www.w3.org/2000/svg" xmlns:xlink="http://www.w3.org/1999/xlink"><defs><clipPath id="i0"><path d="M1440,0 L1440,900 L0,900 L0,0 L1440,0 Z"></path></clipPath><clipPath id="i1"><path d="M17.0634262,21.9164997 L16.7142601,22.0944831 C16.3621721,22.2664838 16.0014732,22.4204668 15.6335553,22.5558107 L15.693,22.504 L15.722,22.48 L15.766,22.443 L15.7866817,22.4268116 L15.803,22.414 L15.858,22.375 L15.948868,22.3110572 L15.965,22.301 L16.024,22.265 L16.033,22.26 L16.099,22.22 L16.1192424,22.2089374 L16.238,22.149 L16.27,22.133 L16.2969332,22.120842 L16.362,22.094 L16.4810687,22.0471607 L16.507,22.039 L16.545,22.027 L16.632,22 L16.641,21.997 L16.6707772,21.9882834 L16.674,21.987 L16.679,21.986 L16.75,21.97 L16.754,21.969 L16.843,21.949 L16.8651869,21.9445998 L16.872,21.943 L16.9,21.939 L17.021,21.922 L17.0634262,21.9164997 Z M10.6208614,17.4497083 C6.9576344,16.9610859 5.04645179,18.824475 4.58707061,19.2068238 C4.58707061,19.2068238 6.31775367,21.6859054 10.5539542,21.9698557 C14.1113889,22.2084992 15.5809847,20.99524 15.8012129,20.7913729 L15.830929,20.7626482 C15.830929,20.7626482 14.2835388,17.9383276 10.6208614,17.4497083 Z M10.166537,0.838393339 C5.93034646,0.838393339 2.49539345,4.27333521 2.49539345,8.50953434 C2.49539345,12.7462731 5.93033646,16.181225 10.166537,16.181225 C14.4032872,16.181225 17.8376805,12.7462981 17.8376805,8.50953434 C17.8376805,4.27334521 14.4033022,0.838393339 10.166537,0.838393339 Z M21.0865176,6.32506725 C20.5264908,6.85868577 18.9712305,8.3689643 18.9712305,11.3630933 C18.9712305,13.8428164 20.445531,15.2260796 20.7505586,15.4857351 L20.79899,15.5256975 C21.4795562,14.9172489 22.3212846,13.7836992 22.324096,11.2253364 C22.324096,8.13505898 21.0865226,6.32506725 21.0865226,6.32506725 Z M9.38891957,2.87216007 C10.6017538,2.96550034 11.9371647,3.39508044 11.9371647,3.39508044 C10.7052177,4.83675786 10.0501621,5.95175584 9.90397014,6.21152811 C12.1440874,6.23514299 13.9518093,7.93940738 13.9490012,10.0395135 C13.9490012,12.1519866 12.1148461,13.8669342 9.85336751,13.8669342 C7.59188404,13.8669342 5.75772158,12.1547844 5.75772158,10.039498 C5.75714404,9.7977962 5.78106969,9.55665752 5.82914149,9.3197836 L5.86860511,9.10143873 C6.43266579,6.31738432 9.38891957,2.87216007 9.38891957,2.87216007 Z M1.34892123,7.47941355 C1.34892123,7.47941355 0.754593365,8.5044476 0.552735474,10.0568941 C0.369432714,11.440099 0.66968917,12.5309169 0.841746123,12.7513299 C0.841746123,12.7513299 1.69640903,11.8724923 1.73914215,9.98042807 C1.78131268,8.07711606 1.34892123,7.47941355 1.34892123,7.47941355 Z M9.85337571,8.37739564 C8.93460466,8.3777169 8.19096815,9.1218657 8.19128268,10.0395035 L8.1972261,10.1837464 C8.26892939,11.0328983 8.98044959,11.700141 9.84831871,11.7010223 L9.99142523,11.6949279 C10.8409768,11.6222922 11.5175716,10.9093618 11.5149155,10.0394905 C11.5145982,9.12047522 10.770704,8.37708503 9.85337571,8.37739564 Z M16.3630303,1.00424265 C20.4284637,2.81686934 23.2631579,6.89263007 23.2631579,11.6313454 C23.2631579,16.0924267 20.7497185,19.9653982 17.0634262,21.9164997 L17.021,21.922 L16.9,21.939 L16.872,21.943 L16.843,21.949 L16.754,21.969 L16.75,21.97 L16.679,21.986 L16.674,21.987 L16.641,21.997 L16.632,22 L16.545,22.027 L16.507,22.039 L16.4810687,22.0471607 L16.362,22.094 L16.2969332,22.120842 L16.27,22.133 L16.238,22.149 L16.1192424,22.2089374 L16.099,22.22 L16.033,22.26 L16.024,22.265 L15.965,22.301 L15.948868,22.3110572 L15.858,22.375 L15.803,22.414 L15.7866817,22.4268116 L15.766,22.443 L15.722,22.48 L15.693,22.504 L15.6335558,22.5558106 L15.2562701,22.6866998 C14.1156112,23.0604851 12.8968907,23.2631579 11.6312607,23.2631579 C5.20836873,23.2631579 0,18.0547409 0,11.6313015 C0,7.39626161 2.26431175,3.69084282 5.64753784,1.65708428 L5.645,1.658 C7.3414254,0.637790425 9.2658869,0.0707325539 11.2370725,0.00620156146 L11.6318781,1.07979478e-05 L12.0487347,0.00706723915 C13.4365931,0.0555421816 14.8056348,0.353116631 16.0901768,0.886734243 Z"></path></clipPath></defs><g transform="translate(-436.0 -22.0)"><g clip-path="url(#i0)"><g transform="translate(437.0 23.36842105263158)"><g transform="translate(0.368421052631561 -3.552713678800501e-15)"><g clip-path="url(#i1)"><polygon points="0,1.40023864e-14 23.2631579,1.40023864e-14 23.2631579,23.2631579 0,23.2631579 0,1.40023864e-14" stroke="none" fill="#BBBBBB"></polygon></g></g></g></g></g></svg>