<?xml version="1.0" encoding="UTF-8"?><svg version="1.1" width="26px" height="26px" viewBox="0 0 26.0 26.0" xmlns="http://www.w3.org/2000/svg" xmlns:xlink="http://www.w3.org/1999/xlink"><defs><clipPath id="i0"><path d="M1440,0 L1440,900 L0,900 L0,0 L1440,0 Z"></path></clipPath><clipPath id="i1"><path d="M0.278841006,0 L0.422040138,0.00106947579 L0.836033249,0.0233456059 L1.40484655,0.0744469124 L1.92200805,0.133115554 L2.50817537,0.210332042 L2.93346359,0.27260796 L3.3836812,0.343868217 L3.85653226,0.424409153 L4.34972085,0.51452711 L4.860951,0.614518427 L5.38792679,0.724679447 L5.92835228,0.845306509 L6.47993151,0.976695955 L6.7591863,1.04651918 L7.32319127,1.19460784 L7.89261014,1.35419973 L8.46514696,1.5255912 C10.7584689,2.23515136 13.0715192,3.23501352 14.7430667,4.61052383 L15.1079981,4.41267266 L15.3527213,4.28589462 C15.9268637,4.00115685 16.784128,3.67288557 17.879945,3.72626995 C19.2187437,3.79199236 19.8322746,4.28049038 19.8193061,4.40800689 C19.8055519,4.54332158 19.6739904,4.67814332 19.4646356,4.85375531 L18.8251247,5.37623055 C18.4532295,5.69199944 18.0452877,6.0904181 17.8089123,6.57849258 C17.6579971,6.8920144 17.6136174,7.13010762 17.6097975,7.51717372 C17.930562,7.88459384 18.240438,8.25284545 18.5379152,8.61721896 L18.9746429,9.16028196 L19.3916396,9.69399562 C19.4594318,9.78197256 19.5263547,9.86941276 19.5923848,9.95624265 L19.9776609,10.4693095 L20.340374,10.9641965 L20.6793914,11.4373715 L21.1410101,12.0986973 L21.6629941,12.871506 L22.0698056,13.4938874 C23.1619379,12.6453699 24.1987871,12.1589462 24.9305971,11.9309174 L25.1758103,11.860997 C25.5620333,11.7617822 25.8325393,11.747756 25.9364925,11.7978113 C25.9727628,11.8161263 25.994047,11.8427128 25.9990997,11.8765793 C26.0058009,11.9252765 25.9754039,11.9895128 25.8975024,12.0851624 L25.8033807,12.191871 L25.6752768,12.3230495 L25.4143457,12.5734147 L24.572489,13.356047 C24.5170225,13.4084285 24.4616239,13.4611331 24.4066476,13.5139627 L24.0846936,13.8308573 C23.7216107,14.1986228 23.4139629,14.5531144 23.2833443,14.8264275 C23.2701045,14.8541544 23.2572616,14.8810869 23.2447611,14.9074566 L23.107694,15.2117188 L23.0449367,15.3714076 L22.982538,15.5509692 L22.9178788,15.7615296 L22.8109225,16.1598306 L22.7291536,16.4965633 L22.5968799,17.0801256 L22.5044938,17.5253134 L22.4097075,18.0185216 L22.3710192,18.1917104 L22.346239,18.2660776 C22.3248319,18.3160277 22.3004388,18.3375957 22.2648537,18.3433419 C22.2456234,18.3463648 22.2124537,18.3231585 22.1703252,18.2744269 L22.1010358,18.1822737 C21.826903,17.7748294 21.3570927,16.6058947 21.5202225,14.7925976 L21.1406272,14.823242 L20.6984505,14.8478081 L20.1974797,14.8634887 C19.8447427,14.8703569 19.4553344,14.8694299 19.0343043,14.8569648 L18.8272084,14.8496216 L18.3997146,14.8272929 L17.9631217,14.7966013 L17.5277934,14.7597384 L16.8998436,14.6976676 L16.1637342,14.6137638 L15.4447494,14.5210764 L15.9498946,15.3302325 L16.2625421,15.8175811 L16.564368,16.2745388 L16.8538695,16.7013328 L17.2617261,17.2854638 L17.513842,17.6378427 L18.1586737,18.5196776 L18.5458696,19.0570585 L18.6568264,19.2226044 C18.6730816,19.2478648 18.6881972,19.2719631 18.7021417,19.2949039 L18.7715067,19.4186979 C18.8080482,19.4920185 18.8248521,19.546972 18.8199148,19.5838614 C18.8151352,19.619162 18.792569,19.653984 18.7511795,19.6811428 L18.7034772,19.7054812 C18.6944683,19.7090231 18.684927,19.7122857 18.6748483,19.7152356 L18.607891,19.728917 C18.5711504,19.7335099 18.529488,19.7349018 18.4827744,19.7318771 L18.3825737,19.7198141 L18.2686726,19.6946593 C18.2485346,19.6892871 18.2278161,19.6833029 18.2065124,19.6766734 L18.0716288,19.6288872 C18.0479649,19.6195435 18.0237062,19.6094881 17.9988478,19.5986876 L17.8424634,19.5246775 C17.8151873,19.5107637 17.7873019,19.4960382 17.7588025,19.4804679 L17.5803993,19.3766418 C17.5494245,19.357559 17.5178261,19.3375648 17.4855993,19.316626 L17.2846589,19.1793913 L17.0684057,19.0178886 C17.0310747,18.9888604 16.993096,18.9587546 16.954465,18.9275378 L16.7148109,18.7266392 L16.4592684,18.4974811 C16.3714139,18.4162078 16.2808729,18.3299584 16.1876071,18.2384668 L15.8995966,17.9479997 L15.5950067,17.6244831 L15.2736069,17.2663206 L14.9351671,16.8719154 L14.5992399,16.4672912 L13.6121878,15.2890248 L13.1928149,14.7787516 L12.7993766,14.2846441 L12.2334269,14.1889224 L11.8310521,14.1076954 L11.522023,14.0383832 L11.186202,13.9561213 L10.8285873,13.8602058 L10.4541774,13.7499328 C10.0095123,13.6126319 9.54076169,13.4445809 9.08364277,13.2407499 C8.53105242,12.9936905 8.02149453,12.7459659 7.54827581,12.4997153 L7.25273589,12.6705375 L6.91267105,12.8798205 L6.64851327,13.0517474 L6.3661807,13.2457121 C6.27016296,13.3136698 6.17279943,13.3847454 6.0757735,13.4583836 C5.84271335,13.6350695 5.60774158,13.8396779 5.4006572,14.019628 L5.07254104,14.3009382 C4.8412685,14.492389 4.66659248,14.6117644 4.55384961,14.6011868 C4.51365009,14.5976798 4.47461545,14.5887654 4.43773332,14.5753414 C3.9952767,14.4143004 3.91457417,13.6146529 4.02656797,13.0991062 C4.1745587,12.4179714 4.57958705,11.7853293 4.87983615,11.388476 L5.03104235,11.1965203 L5.14841764,11.0580872 C4.78847707,10.8070959 4.46757595,10.5641198 4.18226395,10.332719 L3.85675151,10.0608222 C3.80527296,10.016508 3.75516277,9.97271382 3.70639333,9.92946809 L3.42964499,9.67680306 L3.1837499,9.43866816 L2.96738312,9.21643047 C2.93370907,9.18079158 2.90121017,9.14587203 2.86985881,9.11170031 L2.69530027,8.91587179 L2.54695774,8.73935825 L2.42350629,8.58352682 L2.323621,8.44974459 L2.21508132,8.29340406 L2.14047733,8.1748819 L2.08038539,8.05597362 C1.98811357,7.83934078 1.9770071,7.60517952 2.05618344,7.4354501 C2.08160466,7.38145515 2.1223464,7.3204766 2.18636721,7.27057263 C2.18678934,7.20882444 2.20038906,7.08117881 2.28329833,6.86823362 C2.34815757,6.70146988 2.49209925,6.51845397 2.51728571,6.5549835 C2.52555398,6.56744265 2.53092909,6.59935314 2.53590353,6.64059745 L2.55211736,6.78221434 C2.55878298,6.83200878 2.56754043,6.88101954 2.58088221,6.9191291 C2.62234229,7.04034958 2.69799679,7.1270063 2.74415786,7.17251565 L2.80124109,7.17256859 L2.81098572,6.99658512 C2.81670609,6.82271499 2.8127345,6.59156806 2.77138446,6.38389167 C2.73991455,6.22572722 2.63183545,6.01117057 2.52346565,5.81866386 L2.37023274,5.55624651 L2.15212867,5.53062764 C2.05579556,5.51685087 1.97982579,5.50165586 1.93000155,5.48518998 C1.44606738,5.31793392 0.419564955,3.52488162 0.256926222,2.73066896 C0.249213349,2.69280963 0.241297445,2.65277355 0.233246441,2.61083614 L0.183862675,2.33859939 L0.110840334,1.87360595 L0.0676161714,1.54513213 L0.0325620808,1.21730032 C0.0275817219,1.16344969 0.0230776453,1.11017668 0.0191177823,1.05775674 L0.00243261848,0.75567739 C-0.00965764722,0.372429985 0.0217769676,0.0790348746 0.131517298,0.0165165231 C0.139853207,0.011789719 0.156553242,0.00801701324 0.181234746,0.00524779602 L0.278841006,0 Z M0.934447374,2.32064953 C0.868915461,2.35272033 0.883943433,2.50700819 0.913448412,2.65265275 L0.952048869,2.81489089 L1.01858225,3.03886794 C1.21488946,3.65775302 1.58782475,4.53985042 2.00690475,4.93103408 C2.19738365,5.10887784 2.8484151,5.20675103 3.56713991,5.27533496 L4.00335512,5.31337606 L5.04122054,5.39368971 L5.3857974,5.42628538 C5.64697585,5.45474295 5.83668432,5.4872815 5.90581541,5.5302362 C6.0104402,5.59554198 6.16798551,5.78716223 6.33134218,6.01978165 L6.49489117,6.26290762 L6.65184568,6.51440741 C6.67687363,6.55596859 6.70119061,6.59708872 6.72457853,6.63737282 L6.85201249,6.86588529 C6.96480811,7.0780458 7.02845435,7.23167095 6.99584203,7.24144543 C6.94099653,7.25851675 6.84025276,7.16241249 6.71646027,7.01247139 L6.58583115,6.84678241 L6.44491389,6.65838859 C6.3967824,6.69144896 6.32504215,6.73043344 6.23353167,6.77317374 L6.02528772,6.86301964 L5.77114716,6.95902633 L5.47793403,7.05733905 C5.37444245,7.09006599 5.2655761,7.12253482 5.15247234,7.15410307 L4.80158613,7.24546365 L4.61874134,7.28791304 C4.29216862,7.36047498 3.98554327,7.3935922 3.71364678,7.41354795 L3.13534271,7.44962875 C2.84572446,7.4716349 2.64735211,7.5090567 2.58078601,7.63401541 C2.45849406,7.86359893 2.82475389,8.40134096 3.54797421,9.11630015 L3.81783605,9.37578398 L4.11605603,9.6487055 L4.44134849,9.93378542 L4.79242779,10.2297444 C5.74932759,11.0213409 6.84177293,11.6858126 7.73342692,12.1684118 L8.16096419,12.3943018 C8.2289126,12.4293397 8.29507734,12.4630512 8.35926378,12.4954046 L8.71908567,12.6729751 C8.83007501,12.7265641 8.93159403,12.7744674 9.02208561,12.8164315 L9.2453197,12.9179321 C9.39287436,12.9835608 9.53781264,13.0451514 9.67965321,13.1029359 L10.0954005,13.2651029 C10.1629824,13.290305 10.2296695,13.3146135 10.2954017,13.3380575 L10.6778545,13.4685786 C10.7395264,13.4886803 10.8001229,13.5079755 10.8595841,13.5264931 L11.2022443,13.6284995 L11.5147662,13.7132357 L11.7942617,13.7820933 L12.2426212,13.8777393 L12.5242186,13.9265704 L12.3465856,13.6917013 L12.1305806,13.396546 L11.9886684,13.1874612 C11.9664948,13.1520189 11.9509396,13.1244099 11.9427559,13.105606 C11.8253112,12.8417923 11.9767204,12.6472375 12.2287644,12.446801 L12.3907211,12.3252321 L12.6969524,12.1085593 L12.9048213,11.9713902 C13.2146689,11.7769811 13.508183,11.6461801 13.6836754,11.7485217 C13.6927144,11.7537446 13.7067322,11.7680529 13.7252952,11.7906397 L13.7941857,11.8824277 L13.8877445,12.0190424 L14.1384561,12.4073781 L15.2119562,14.1445109 L15.6806315,14.2232665 L16.4584443,14.3367501 L17.0333422,14.4077472 L17.4488182,14.4518788 L17.8828517,14.4909803 L18.3502929,14.5233896 L18.8736403,14.5489347 L19.6173076,14.5703847 L20.1786404,14.5755654 L20.5413592,14.5732044 L20.8866566,14.565805 L21.3565273,14.5445344 C21.4047963,14.5414584 21.4516056,14.538138 21.4968083,14.5345662 L21.7475732,14.5100642 C22.0530915,14.4732264 22.2370087,14.4194195 22.2241809,14.3451103 C22.1737977,14.0578133 21.7715573,13.8514816 21.2393767,13.9345477 C20.4524797,14.0575899 18.7779474,13.2390791 18.266785,12.8771941 L18.1287521,12.7854833 C17.6624127,12.4950977 17.1274302,12.3560464 16.3334235,12.3131909 L15.8265433,12.2859736 L15.5084543,12.2610116 C14.9262629,12.2031251 14.3615857,12.065823 14.0152202,11.6389014 L13.9409985,11.5545023 C13.5900284,11.1890629 13.1726037,11.2216221 12.6034975,11.6553687 L12.3455296,11.8499415 L12.1170085,12.0158514 C11.7592084,12.266935 11.5130742,12.3869845 11.3234591,12.3179702 C11.2582706,12.2942436 11.204049,12.253426 11.1620242,12.193543 C11.1198673,12.1352267 11.1040401,12.0751898 11.113319,12.0121795 C11.1270887,11.9158799 11.1966743,11.8270337 11.3063887,11.7176012 L11.4563037,11.5746062 L11.7021421,11.3349383 C11.9375644,11.0930367 12.2165679,10.7629322 12.527285,10.2547547 C12.8914642,9.65913984 13.1101174,9.04291637 13.2311315,8.5441738 L13.2877437,8.28461338 C13.2956612,8.24357181 13.3028436,8.20370865 13.3093271,8.16512765 L13.3401277,7.94985762 L13.3558792,7.77033942 L13.3583086,7.63155302 C13.3558713,7.55371266 13.3457038,7.50634678 13.3301088,7.49609531 C13.3099253,7.48250823 13.2900389,7.53363012 13.2654362,7.63244329 L13.1724664,8.05493903 L13.0905888,8.40331127 L13.0211199,8.66147647 C12.9194871,9.0158887 12.780113,9.40526014 12.5824633,9.75988639 C12.3828048,10.118214 12.0882477,10.4959935 11.7923138,10.8310333 L11.5715665,11.0733277 L11.3590705,11.2937644 L11.1635936,11.4865128 L10.9939034,11.6457424 L10.8068975,11.8089853 L10.7400325,11.8589101 C10.656898,11.9087652 10.5642321,11.9053604 10.4851038,11.8499154 C10.3985226,11.7890663 10.3468139,11.6769446 10.3534763,11.566152 C10.3560751,11.5260094 10.3804649,11.4797132 10.4325663,11.4125522 L10.5322419,11.2943233 L10.7897145,11.0094586 C11.1405993,10.612691 11.6198552,10.0066541 11.9229908,9.33702337 C12.1552645,8.8241158 12.3019283,8.29895802 12.3872718,7.8671599 L12.4313138,7.62012906 C12.4436712,7.54208309 12.4537701,7.46861638 12.4618048,7.40057382 L12.4799108,7.21356344 C12.4819611,7.18538874 12.483544,7.1587813 12.4846837,7.13384672 L12.4863981,7.00515853 C12.4842547,6.93387584 12.4757978,6.89273851 12.4625818,6.88850558 C12.4523896,6.88510175 12.4413417,6.90688012 12.4285861,6.94970132 L12.4005453,7.06217434 L12.2739495,7.66268957 L12.2125434,7.92603039 L12.1390089,8.20869091 C12.0455546,8.54686956 11.9242449,8.90946819 11.7642548,9.24390134 C11.5868857,9.61430556 11.3253237,10.0123121 11.0624359,10.3626583 L10.8387115,10.6495276 C10.765317,10.7400898 10.693747,10.8250059 10.6259343,10.9025206 L10.4357007,11.111105 C10.3481526,11.2025395 10.273407,11.2733712 10.2179871,11.3176755 C10.1562262,11.3667872 10.0855346,11.3744307 10.0175379,11.3385575 C9.90251085,11.276416 9.82940461,11.1881748 9.83043746,11.078204 C9.83123543,10.9454055 9.92473321,10.7831667 10.0680345,10.5766317 L10.4599964,10.0258169 C10.6626142,9.73212449 10.8788742,9.38711762 11.062759,8.97260887 C11.1746688,8.72018543 11.2712785,8.45345165 11.353218,8.188959 L11.4445441,7.87370286 L11.5220288,7.56695398 C11.533803,7.5168912 11.5450104,7.46744771 11.5556563,7.41875593 L11.6128325,7.13668498 L11.6567722,6.8790107 L11.6877172,6.65208885 L11.7059094,6.46227519 C11.717806,6.29313421 11.7109363,6.18918917 11.686389,6.17904101 C11.6659927,6.17062892 11.6450133,6.23387176 11.6195573,6.34834102 L11.4756344,7.07426765 L11.4158729,7.34525714 L11.3450856,7.6301236 L11.2617772,7.92102249 C11.17171,8.21232276 11.0606185,8.50090486 10.9217746,8.7514684 L10.6715116,9.19189033 L10.4991769,9.47709926 L10.308676,9.77129429 C10.0797079,10.1097462 9.83402011,10.4139526 9.64290629,10.4998412 C9.56965618,10.5325703 9.50508704,10.5330223 9.45150648,10.5016785 C9.1758712,10.3405791 9.10881818,9.98580754 9.08905124,9.63559131 L9.07757539,9.3158464 C9.05506013,8.94617597 8.92387612,8.42899418 8.39318588,8.15625657 L8.22729008,8.05975821 C7.69022396,7.70981563 7.31055655,7.08866237 7.03428005,6.54439426 L6.880489,6.22984439 C6.4860149,5.3970938 5.80438683,4.763057 4.55340333,4.21631889 C4.46419292,4.17733917 4.34740537,4.13895421 4.21614347,4.10152971 L3.93820285,4.02806967 L3.22734984,3.85989135 L2.99775441,3.80051531 C2.86417727,3.76268797 2.77474951,3.72851849 2.76052961,3.69887371 L2.56228703,3.55961413 C2.43546765,3.4857344 2.31021412,3.3628134 2.13020091,3.17366971 L2.02338314,3.06562626 C1.80741799,2.85616046 1.58010255,2.6867175 1.38872926,2.56263102 L1.21108827,2.4538609 L1.06791815,2.37651368 L0.969728341,2.33177462 C0.945662838,2.32242799 0.930845626,2.31871359 0.927028277,2.32082897 Z"></path></clipPath></defs><g transform="translate(-658.0 -22.0)"><g clip-path="url(#i0)"><g transform="translate(647.0 22.0)"><g transform="translate(11.0 0.0)"><g transform=""><g transform="translate(0.0009544746059724218 3.1357920932266143)"><g clip-path="url(#i1)"><polygon points="0,0 26,0 26,19.7334833 0,19.7334833 0,0" stroke="none" fill="#BBBBBB"></polygon></g></g></g></g></g></g></g></svg>