<?xml version="1.0" encoding="UTF-8"?><svg version="1.1" width="26px" height="26px" viewBox="0 0 26.0 26.0" xmlns="http://www.w3.org/2000/svg" xmlns:xlink="http://www.w3.org/1999/xlink"><defs><clipPath id="i0"><path d="M1440,0 L1440,900 L0,900 L0,0 L1440,0 Z"></path></clipPath><clipPath id="i1"><path d="M9.89172317,13.3412173 C10.2466296,13.2748879 10.6157429,13.3548513 10.9140793,13.5674326 L11.0368966,13.6558499 C11.6486479,14.1216901 11.576412,14.5060226 11.2234278,15.2885326 C10.9262954,15.9494031 10.8273569,16.3679817 10.7996668,16.5089784 L10.7902748,16.5621278 L11.9748408,20.2683813 L13.6028065,14.1920664 C16.1749796,15.0521049 18.4480382,16.8601224 19.7550894,19.6127469 C20.4942838,21.1706993 19.3027873,22.9374167 17.5110811,22.9374167 L2.46463518,22.9374167 C0.653120165,22.9374167 -0.540359715,21.1294061 0.246378936,19.5694602 L0.317690631,19.4229552 C1.69703307,16.6699889 4.03975339,14.8992869 6.65980601,14.0975054 C6.97872798,15.0114929 8.42642197,20.1421752 8.42642197,20.1421752 C8.42642197,20.1421752 9.42511641,16.4985326 9.42511641,15.9884283 C9.42511641,15.4783241 8.55881273,15.0308193 8.86782917,14.203731 C9.01779011,13.8081429 9.33961258,13.503949 9.74073804,13.3786408 Z M9.99036674,0 C13.4633327,0 16.279165,2.81564282 16.2781667,6.28961357 C16.2771642,9.76391732 13.4626494,12.5785833 9.99036674,12.5785833 C6.51742355,12.5785833 3.69958333,9.76389512 3.69958333,6.28961357 C3.69958333,2.81564282 6.51742355,0 9.99036674,0 Z"></path></clipPath></defs><g transform="translate(-1028.0 -22.0)"><g clip-path="url(#i0)"><g transform="translate(1019.5 22.0)"><g transform="translate(8.5 0.0)"><g transform="translate(3.1200000000002746 2.0800000000000125)"><g clip-path="url(#i1)"><polygon points="-5.55111512e-17,0 19.97775,0 19.97775,22.9374167 -5.55111512e-17,22.9374167 -5.55111512e-17,0" stroke="none" fill="#BBBBBB"></polygon></g></g></g></g></g></g></svg>