<?xml version="1.0" encoding="UTF-8"?><svg version="1.1" width="26px" height="26px" viewBox="0 0 26.0 26.0" xmlns="http://www.w3.org/2000/svg" xmlns:xlink="http://www.w3.org/1999/xlink"><defs><clipPath id="i0"><path d="M1440,0 L1440,900 L0,900 L0,0 L1440,0 Z"></path></clipPath><clipPath id="i1"><path d="M15.9059666,0.65106317 L16.052961,0.652352509 C16.2190613,0.661255528 16.3864796,0.695505661 16.5496847,0.757714091 L24.7915499,3.89454877 C25.6310346,4.21395366 26.0556082,5.15264686 25.7351418,5.98025877 L21.1512951,17.818342 C20.8931484,18.4850362 20.2272311,18.8845373 19.5390078,18.8476483 C19.3729074,18.8387453 19.2054974,18.804334 19.042284,18.7422868 L13.571,16.659 L16.3415547,15.6054571 C17.1343937,15.3036449 17.5571567,14.44973 17.3317087,13.6584487 L17.2851383,13.5195862 L13.57,3.926 L14.4406819,1.68149789 C14.6803896,1.06242468 15.2716882,0.673876216 15.9059666,0.65106317 Z M11.4013862,1.03149789 L12.958,5.051 L15.9851383,12.8695862 C16.2878088,13.6513717 15.9259075,14.5319517 15.1775692,14.8965901 L15.0415547,14.9554571 L8.52,17.437 L6.79978405,18.0922868 C6.63657066,18.154334 6.46916066,18.1887453 6.30306029,18.1976483 C5.614837,18.2345373 4.94891968,17.8350362 4.69077296,17.168342 L0.106926326,5.33025877 C-0.21354007,4.50264686 0.211033546,3.56395366 1.05051818,3.24454877 L9.29238336,0.107714091 C9.4555885,0.0455056614 9.62300675,0.0112555276 9.78910712,0.00235250914 C10.4773304,-0.0345364194 11.1432395,0.364803663 11.4013862,1.03149789 Z M8.22023454,3.68063073 L8.14388987,3.7218072 C8.0720275,4.02978463 7.99110489,4.28976649 7.89771251,4.54445524 C7.60543561,4.38359963 7.33621472,4.20309756 7.07758004,3.99765592 L6.98517725,4.02465785 L6.24056619,4.73874934 L6.25868667,4.83474047 C7.25922557,5.59792523 8.10734955,6.0094405 9.05980973,6.24449527 L8.10061363,6.63203565 L7.25499276,6.94269497 L7.21076432,7.01222056 L7.42041384,7.45440926 L7.54600563,7.76525985 C7.73259915,8.227095 7.77108125,8.55247773 7.44901244,9.03386372 L8.20778559,9.32651066 L7.91110955,9.43604433 L7.88105567,9.4895118 L8.22912435,10.351012 L8.3003547,10.3738892 L9.08003833,10.0278829 L8.52929309,10.7359661 L8.54382523,10.8230758 C8.88598125,11.0051038 9.21378392,11.1516061 9.52723325,11.2625826 C9.20480685,11.6408008 8.81814797,11.9623207 8.41713575,12.2483149 C8.39542693,12.1434423 8.37542289,12.0172185 8.33577239,11.8679387 C8.24741115,11.5213836 8.05857648,10.926148 7.76038694,10.0858202 L7.66421702,10.0523568 L6.67667181,10.4720134 L5.9483933,10.766257 C5.90138733,10.5476304 5.85626493,10.3592365 5.82020277,10.2188381 L6.37973382,9.99277292 L7.52732384,9.56011014 L7.56796393,9.48170311 L7.20401594,8.65761226 L6.95283236,8.03591109 L6.67087972,7.26134178 L6.58717959,7.23317146 L5.76838184,7.58464968 C6.12579764,7.03732645 6.42050695,6.36036987 6.58110061,5.47931885 C6.59509637,5.41167683 6.58603613,5.36368127 6.57168278,5.32815549 C6.54656442,5.26598537 6.48062717,5.23063838 6.43074805,5.20946595 L5.73432381,4.94328454 L5.21049733,5.20658032 L4.0292651,5.68382912 L2.85503075,6.12725691 L2.81797899,6.21454538 L3.18040101,7.11157136 L3.26768948,7.14862312 L3.74369919,6.94597149 L3.408171,7.64975119 L3.43517292,7.74215398 C3.66303855,7.79472748 3.90696229,7.86147553 4.14559292,7.94069337 C3.86210184,8.26185575 3.53231997,8.57072714 3.08349098,8.91736546 L4.02114459,9.49933298 C4.07461205,9.52938685 4.12090285,9.54167784 4.16531007,9.52373616 C4.19195441,9.51297115 4.22389185,9.48973636 4.26112241,9.45403178 C4.43668895,9.30044847 4.59619738,9.13269061 4.74852914,8.94716985 L4.76288249,8.98269563 L4.84658263,9.01086595 L5.56409613,8.68997799 L5.85718383,8.57156288 L6.06530737,9.08668671 L5.34591029,9.37734199 L4.52863853,9.65588508 L4.47911699,9.73788045 C4.68266259,10.4718097 4.91186293,11.4226607 5.03977904,12.404102 L6.19490331,12.0923699 L6.13847952,11.7225799 L6.90228382,11.413983 C6.96875745,11.6040817 7.062233,11.8865831 7.10565063,12.0963283 C7.17436541,12.4198274 7.10878575,12.4876483 6.79264205,12.6257098 C6.32910212,12.8336546 6.13371032,12.912598 5.86367863,13.0113666 L6.64729571,13.8002061 C6.73117464,13.8799604 6.76858399,13.8958397 6.87516133,13.8527796 L7.23930059,13.7056578 C7.92317188,13.4293559 8.249723,13.2147709 8.36240426,12.8799703 C8.41874489,12.71257 8.45391308,12.5950489 8.43373024,12.4172412 L9.18792546,12.9286935 C9.24498126,12.9676288 9.27880227,12.9746267 9.33209094,12.9530967 C9.35873528,12.9423317 9.38179128,12.9226852 9.42261017,12.8958621 C9.95837005,12.4831077 10.4049579,12.0030689 10.7377917,11.5483273 C11.3802121,11.6297031 12.0489193,11.5971461 12.7280338,11.4880657 C12.8453762,11.47165 12.8826067,11.4359454 12.900012,11.3256009 L13.0561234,10.1777489 C12.4268879,10.3080018 11.8828786,10.3934899 11.3742163,10.4130407 C11.578764,9.89648654 11.6960232,9.3428806 11.7167548,8.65264344 C11.716576,8.60105954 11.7146925,8.57082687 11.7039275,8.54418253 C11.6823974,8.49089386 11.6449881,8.47501454 11.5576996,8.43796278 L10.9752082,8.19806812 L10.4175607,8.45436602 L8.70344175,9.14691503 C8.98433409,8.58918437 8.94872515,8.06634749 8.77289664,7.63115667 L8.67601155,7.39135764 L9.12008381,7.2119408 L9.39638575,7.89581209 C9.5865676,8.36652869 9.76661646,8.47974633 10.6014723,8.14244267 C11.2231735,7.89125909 11.4325611,7.74467366 11.5635416,7.55744813 C11.689229,7.38269239 11.6719193,7.00743053 11.5693835,6.67693349 C11.5531466,6.61117503 11.5157373,6.59529571 11.4339207,6.59735807 L10.523531,6.69656748 C10.6457132,7.05012052 10.6156593,7.10358799 10.509082,7.14664803 C10.4113861,7.18611973 10.3792699,7.15777063 10.3362098,7.05119328 L10.0814379,6.42061066 C10.3714736,6.4480658 10.6703908,6.47193261 10.9959523,6.4850344 C11.0813573,6.49185348 11.1418226,6.48808635 11.1773484,6.47373301 C11.2217556,6.45579132 11.2412233,6.42726342 11.2535143,6.38097263 L11.628431,5.23769859 C11.1518849,5.28559853 10.6965112,5.28361933 10.2570169,5.24423079 C10.4001096,4.95913057 10.5324373,4.64738602 10.6451186,4.31258546 L10.6092352,4.22377101 L9.65865863,4.01894892 L9.58231396,4.0601254 C9.48398605,4.43045173 9.3765979,4.7527825 9.2265073,5.07170373 C9.08763492,5.03483077 8.94517421,4.98907635 8.79912516,4.9344405 C8.94051311,4.67069151 9.08172227,4.35535861 9.2422203,3.95991392 L9.20633693,3.87109947 L8.22023454,3.68063073 Z M10.4833067,9.46092567 C10.4256189,9.75284497 10.3180519,10.0235918 10.1713709,10.2998106 C9.84204223,10.2262435 9.51971146,10.1188553 9.22214145,9.9704695 L10.4833067,9.46092567 Z M5.24636823,6.31819133 C5.13880129,6.5889382 5.00970432,6.8063964 4.82561392,7.06673585 C4.53181105,6.97881537 4.23630341,6.91224611 3.93550265,6.85814663 L4.42039381,6.65190666 L5.24636823,6.31819133 Z"></path></clipPath></defs><g transform="translate(-510.0 -22.0)"><g clip-path="url(#i0)"><g transform="translate(499.0 22.0)"><g transform="translate(11.0 0.0)"><g transform="translate(1.0746958878371515e-12 4.1052631578948215)"><g clip-path="url(#i1)"><polygon points="-1.66505698e-13,7.10542736e-15 25.8420681,7.10542736e-15 25.8420681,18.85 -1.66505698e-13,18.85 -1.66505698e-13,7.10542736e-15" stroke="none" fill="#BBBBBB"></polygon></g></g></g></g></g></g></svg>