<?xml version="1.0" encoding="UTF-8"?><svg version="1.1" width="26px" height="26px" viewBox="0 0 26.0 26.0" xmlns="http://www.w3.org/2000/svg" xmlns:xlink="http://www.w3.org/1999/xlink"><defs><clipPath id="i0"><path d="M1440,0 L1440,900 L0,900 L0,0 L1440,0 Z"></path></clipPath><clipPath id="i1"><path d="M26,0 L26,26 L0,26 L0,0 L26,0 Z"></path></clipPath><clipPath id="i2"><path d="M8.7021489,3.8579081 L8.80549882,3.87344308 C9.19115464,3.97857947 9.52536747,4.2473046 9.6683704,4.67183778 C9.77482549,4.98797641 10.0389407,5.13425313 10.3067202,5.1784571 C11.5298831,5.38031703 12.759042,5.54385714 13.985536,5.7244661 C14.4712701,5.79595106 14.5295182,5.92656918 14.2681155,6.34541274 C14.3738092,6.51644174 14.4881164,6.68572009 14.5869097,6.86389759 C14.9833681,7.57899042 14.8367485,8.18743935 14.1280155,8.55682698 C13.6300988,8.81636118 13.099251,9.01301779 12.57478,9.21512087 C12.2132515,9.35444361 11.8374464,9.45510612 11.4680182,9.57298337 C11.4752041,9.60473826 11.4823899,9.63649315 11.4895757,9.66829666 C11.7326569,9.62423858 11.9771182,9.58679407 12.2185814,9.53471217 C12.5777781,9.45714855 12.931978,9.35094231 13.2938397,9.29302489 C13.4935203,9.26107549 13.7044318,9.30946157 13.9102513,9.30921843 C14.0689108,9.30897528 14.2276654,9.29146876 14.386087,9.27794983 C14.8562597,9.23778209 15.3256234,9.1862351 15.7963671,9.15676579 C16.524183,9.11110294 17.2560439,9.02225734 17.9800052,9.06407848 C18.4284776,9.08994923 18.8678606,9.31651281 19.3071485,9.46575592 C20.1194813,9.7417268 20.9673625,9.94684489 21.7292041,10.3295569 C22.6051149,10.7696028 23.493351,10.8994915 24.4386932,10.8567464 C24.8330101,10.8389481 25.228707,10.85378 25.6237853,10.85378 C25.6305905,10.882374 25.637348,10.9110166 25.6441531,10.9396106 C24.9966187,11.2836138 24.2750845,11.3459078 23.5417483,11.3633171 C23.5427477,11.4167606 23.5436995,11.4702042 23.5446988,11.5236477 C24.1788609,11.6101591 24.8108339,11.7300301 25.4478513,11.7738451 C26.0762552,11.8170278 26.7097034,11.7832791 27.340915,11.7832791 L27.3684211,11.8813643 C27.1715481,11.9587334 26.9767691,12.0423271 26.7771361,12.1114778 C26.6285653,12.1629762 26.458437,12.1673528 26.3249042,12.2427281 C26.0300469,12.4091373 25.7522738,12.6070583 25.5302267,12.7513899 C25.5781005,12.7799352 25.6862688,12.8443689 25.7944371,12.9088513 C25.6861736,12.9744521 25.5797185,13.0435543 25.4687901,13.104049 C25.4230102,13.1289958 25.3674746,13.13488 25.3166027,13.1501982 C24.2555257,13.4693032 23.2113426,13.5023711 22.198425,12.9648722 C21.8854366,12.7987547 21.5684031,12.6405638 21.2293363,12.4664712 C21.1787975,12.7363634 21.1504348,12.9613222 21.0935192,13.1784518 C20.9137268,13.8643446 20.4305563,14.2798109 19.9097361,14.6560594 L19.6235157,14.8587862 C19.2523743,15.119682 18.8611031,15.3506708 18.4263361,15.6286841 C18.7098674,15.941127 18.9842141,16.2219608 19.23253,16.5250667 C19.3854313,16.7117544 19.5528946,16.9162403 19.617234,17.1415881 C19.7203104,17.5025143 19.4760395,17.811164 18.9870218,17.9718836 C18.5334098,18.1209322 18.069614,18.2406087 17.6052471,18.3509485 C17.4129426,18.3966599 17.3253801,18.4558903 17.3049171,18.6822594 C17.2887371,18.8613609 17.1880878,19.088508 17.0510334,19.1887815 C16.7448977,19.4127191 16.3915067,19.5687216 16.059483,19.7562846 C15.8534255,19.872703 15.6319018,19.9726846 15.4543498,20.1251373 C15.3418986,20.2217149 15.3071115,20.4075272 15.2210718,20.5423761 C14.885812,21.0679122 14.5998062,21.0835708 14.237659,20.5958682 C14.2039664,20.620426 14.1713208,20.6472693 14.1359627,20.6695901 C13.7299867,20.9257689 13.4127629,21.3491836 12.8709222,21.3567212 C12.8190509,21.3574506 12.7172595,21.5146689 12.7275385,21.5858135 C12.7680362,21.8665014 12.6007156,21.9962442 12.3998929,22.0763365 C12.1346831,22.1821051 11.8577191,22.2658446 11.5787087,22.3224004 C11.4594047,22.3466178 11.2706694,22.3202607 11.208186,22.2398766 C11.1511276,22.1665437 11.1831069,21.9655591 11.2434965,21.8621734 C11.4354678,21.5337316 11.6589902,21.2245469 11.9048315,20.8562291 C11.5576271,20.9116665 11.2411647,20.9764406 10.921609,21.0083414 C10.6965638,21.0308567 10.4341142,21.0814797 10.246521,20.9920992 C9.78067886,20.770204 9.48943828,20.3494639 9.41106031,19.8344317 C9.29713385,19.0856389 9.23212819,18.3286276 9.16036499,17.5737075 C9.13276376,17.283391 9.14232901,16.9891841 9.13785571,16.6967279 C9.13490523,16.503524 9.06547386,16.4183742 8.86950512,16.4988556 C9.01146111,17.0124289 9.00684504,17.0015359 8.52577462,17.215845 C7.94277,17.4755737 7.36709399,17.7528576 6.7913228,18.0293147 C6.57151231,18.1348888 6.47443211,18.3050911 6.66188254,18.5161906 C6.98800536,18.8834385 7.32512108,19.2409606 7.6675667,19.5924527 C7.84816441,19.7777787 8.04446626,19.9486618 8.24576489,20.1102567 C8.29254422,20.1477499 8.41289511,20.1532936 8.45843714,20.1181347 C8.74710794,19.8954128 8.99399619,20.0120743 9.19058358,20.2327538 C9.373989,20.4385527 9.52451088,20.6808721 9.6585672,20.924845 C9.77901326,21.1439683 9.67512794,21.3196171 9.42619339,21.3175746 C9.22846389,21.3159212 9.02621349,21.2736138 8.83495599,21.2173498 C8.54019389,21.1306439 8.25851857,20.9943848 7.96161498,20.9190095 C7.44513885,20.7878078 7.03054933,20.5253559 6.71894095,20.0783073 C6.51012336,19.7787027 6.30178166,19.4665516 6.03809473,19.2221411 C5.68256232,18.8926294 5.54098704,18.4932862 5.46565472,18.0326701 C5.42572811,17.7884055 5.47303091,17.6084774 5.65353344,17.4556357 C5.9965977,17.1652219 6.34028062,16.8755376 6.68167929,16.5830814 C7.01275129,16.2994271 7.01032429,16.2989408 6.76952734,15.9223074 C6.72945797,15.8595757 6.70337957,15.7867291 6.67577833,15.7165572 C6.41147276,15.0449389 6.16577421,14.3650536 5.88072012,13.7027721 C5.4078349,12.603946 4.9164854,11.513241 4.41961566,10.4254051 C4.17301294,9.88552343 3.99379529,9.81355217 3.43525108,9.95705703 C3.39413476,9.96760957 3.35025832,9.96984652 3.31104554,9.98506747 C2.71504931,10.2165912 2.06903774,10.3519264 1.64983215,10.9193322 C1.59267857,10.9967013 1.45081776,11.0852065 1.38014909,11.0628857 C1.0188585,10.9486557 0.666324156,10.804081 0.315883702,10.6573179 C0.274005973,10.6397628 0.265011778,10.5434283 0.237981608,10.484976 C0.197626705,10.3977351 0.165837701,10.303443 0.110920769,10.2268034 C-0.0538300255,9.99678711 -0.0329387491,9.79964421 0.159508453,9.5911707 C0.769971537,8.92976454 1.33774789,8.24438417 1.80230516,7.4523599 C2.09154702,6.95921088 2.61915882,6.61408923 3.02856122,6.19120945 C3.12583176,6.09074146 3.20620845,5.95326662 3.24499294,5.81807736 C3.31023654,5.59073571 3.31823137,5.34603343 3.38537851,5.11946984 C3.42230705,4.99483313 3.53076085,4.89227408 3.60699735,4.77974604 C3.71849681,4.8833263 3.86135697,4.96842745 3.93273947,5.09554426 C4.0051689,5.22450898 4.00707244,5.39485717 4.04671351,5.57882155 C4.12651914,5.53038684 4.16687404,5.49576283 4.21336784,5.47956929 C4.36274761,5.42753602 4.51441161,5.38231083 4.66517144,5.33445967 C4.64856311,5.49114305 4.61644099,5.64831272 4.62139017,5.80431529 C4.62419789,5.89301501 4.66483832,6.01901334 4.72917774,6.05806262 C4.82306951,6.11495881 4.95308083,6.12201005 5.06862529,6.12701886 C5.42653711,6.14248296 5.71349474,6.29566503 5.97451672,6.54168031 C6.1499273,6.70706832 6.38106381,6.81123213 6.55390462,6.97875983 C6.81559284,7.23245852 7.04977501,7.51606419 7.29066713,7.79154878 C7.31155841,7.81552299 7.28676489,7.87606639 7.29818609,7.9150184 C7.3176973,7.98159181 7.33487669,8.05755067 7.37794413,8.10676345 C7.56853539,8.32452515 7.76802566,8.53416576 7.94348383,8.72425742 C8.04803539,8.38740274 8.32190622,8.20052061 8.73425909,8.22896871 C9.14285248,8.25712503 9.55734683,8.31820335 9.94566759,8.05448703 C9.91073776,7.99904971 9.89341561,7.93466461 9.85515459,7.91662316 C9.43119017,7.71700017 9.15103768,7.37761678 8.92570694,6.97127093 C8.80264352,6.74942438 8.59239828,6.72846518 8.36668684,6.7990262 C8.16495991,6.86209831 7.94591083,7.03205747 7.81856447,6.68168386 C7.74304179,6.47384253 7.51942423,6.24158933 7.56648909,6.08388474 C7.68041555,5.70190213 7.47045584,5.6066861 7.22870713,5.47490089 C7.01827154,5.36018453 7.00704069,5.172962 7.17226737,5.00640688 C7.25131158,4.9267522 7.34406124,4.83187658 7.36723675,4.72897713 C7.45084945,4.35783884 7.69521552,4.14873315 8.01924445,4.03674003 C8.20164372,3.97373045 8.40601616,3.88509127 8.5926297,3.86267574 L8.7021489,3.8579081 Z M15.0341924,12.0721854 C14.5115298,12.6816069 14.5839592,13.2426423 14.91703,13.8321745 C15.0239609,14.0214881 15.071692,14.2557351 15.1049563,14.4759282 C15.1441691,14.7360946 15.0737859,14.9468537 14.806625,15.0896291 C14.1897375,15.4192381 13.608113,15.8235415 12.9757593,16.1151223 C12.5907221,16.292619 12.135397,16.3060893 11.71681,16.4142407 C11.4952863,16.471526 11.2848508,16.5737446 11.0403419,16.6667237 C10.9674842,17.4947822 10.8955306,18.3454047 10.815725,19.1952491 C10.7965945,19.3991029 10.7667566,19.6046586 10.7141715,19.8017529 C10.6438836,20.065372 10.7426769,20.1504731 10.9829504,20.1089924 C11.0583643,20.0959736 11.1340987,20.084914 11.2099791,20.0747612 L11.6656164,20.0163112 C11.9686805,19.9733774 12.2684947,19.9112868 12.5538887,19.7627036 C12.7612311,19.6547467 13.0187315,19.6359272 13.2570063,19.6047559 C13.510081,19.5715908 13.7012909,19.4989873 13.757112,19.2051209 C13.8131235,18.9100387 14.0624863,18.8966657 14.2938608,18.8418119 C14.4177332,18.8124398 14.5981406,18.7222326 14.6236479,18.6242934 C14.7204426,18.2530092 14.9979301,18.136834 15.3002588,18.0710386 C15.5246377,18.0222149 15.5858839,17.9334665 15.5740344,17.6992681 C15.5334892,16.8985879 15.5200693,16.0964487 15.4964655,15.2948445 L15.5008718,15.1622632 L15.4899934,15.1013001 C15.2793675,14.5496502 15.0834463,13.9904626 14.8382237,13.4550062 C14.7151127,13.1861838 14.6670961,12.9574319 14.8012,12.6877342 C14.8864307,12.5163162 14.9390158,12.3280238 15.0341924,12.0721854 Z M9.15955599,15.6287814 C9.42490851,16.1020411 9.88865677,16.3080345 10.3922841,16.4440991 C9.97993119,16.1713864 9.56343813,15.8959018 9.15955599,15.6287814 Z M16.8443603,0.860507596 C19.1463395,1.92878514 20.7664495,3.73028757 21.6865511,6.1861761 C22.0054531,7.03729527 22.2168265,7.91587459 22.2624306,8.89473684 C21.4267291,8.60543492 20.6571489,8.35266567 19.9002987,8.06389743 C19.7725794,8.01513868 19.6526938,7.8258771 19.6087685,7.67620471 C19.2628211,6.49818359 18.6933765,5.45324232 17.9172681,4.52925186 C16.5108165,2.8548618 14.7416307,1.84150455 12.6269172,1.57815878 C10.2455738,1.28157944 8.09845256,1.9352378 6.23274285,3.53248715 C6.12129734,3.62791845 5.97268778,3.67633759 5.84137793,3.74663752 C7.74695623,0.847456746 12.284094,-1.25576774 16.8443603,0.860507596 Z"></path></clipPath></defs><g transform="translate(-732.0 -22.0)"><g clip-path="url(#i0)"><g transform="translate(732.0 21.99999999999992)"><g transform=""><g clip-path="url(#i1)"><g transform="translate(3.455145670145484 -0.27989358891927907) rotate(16.0)"><g transform=""><g clip-path="url(#i2)"><polygon points="1.53155266e-13,-2.7533531e-14 27.3684211,-2.7533531e-14 27.3684211,22.3310509 1.53155266e-13,22.3310509 1.53155266e-13,-2.7533531e-14" stroke="none" fill="#BBBBBB"></polygon></g></g></g></g></g></g></g></g></svg>