<?xml version="1.0" encoding="UTF-8"?><svg version="1.1" width="26px" height="26px" viewBox="0 0 26.0 26.0" xmlns="http://www.w3.org/2000/svg" xmlns:xlink="http://www.w3.org/1999/xlink"><defs><clipPath id="i0"><path d="M1440,0 L1440,900 L0,900 L0,0 L1440,0 Z"></path></clipPath><clipPath id="i1"><path d="M11.329408,0 C12.2521236,0 13,0.764025946 13,1.70456235 L13,21.6971431 C13,22.6368268 12.2521236,23.4 11.329408,23.4 L1.67059202,23.4 C0.746203346,23.4 0,22.6368268 0,21.6971431 L0,1.70456235 C0,0.764025946 0.746203346,0 1.67059202,0 Z M6.50083655,19.5432038 C5.91274131,19.5432038 5.43423423,20.0292471 5.43423423,20.6295532 C5.43423423,21.2298593 5.91274131,21.717608 6.50083655,21.717608 C7.08725869,21.717608 7.56576577,21.2298593 7.56576577,20.6295532 C7.56576577,20.0292471 7.08725869,19.5432038 6.50083655,19.5432038 Z M11.7485199,2.87618249 L1.2523166,2.87618249 L1.2523166,17.9921289 L11.7485199,17.9921289 L11.7485199,2.87618249 Z M8.88500644,1.03518694 L4.11666667,1.03518694 C3.9953668,1.03518694 3.89916345,1.21851906 3.89916345,1.44533926 C3.89916345,1.67215946 3.9953668,1.85634429 4.11666667,1.85634429 L8.88500644,1.85634429 C9.00546976,1.85634429 9.1033462,1.67215946 9.1033462,1.44533926 C9.1033462,1.21851906 9.00546976,1.03518694 8.88500644,1.03518694 Z"></path></clipPath></defs><g transform="translate(-1102.0 -22.0)"><g clip-path="url(#i0)"><g transform="translate(1091.0 22.0)"><g transform="translate(11.0 0.0)"><g transform="translate(6.5 1.3000000000000007)"><g clip-path="url(#i1)"><polygon points="0,0 13,0 13,23.4 0,23.4 0,0" stroke="none" fill="#BBBBBB"></polygon></g></g></g></g></g></g></svg>