<?xml version="1.0" encoding="UTF-8"?><svg version="1.1" width="26px" height="26px" viewBox="0 0 26.0 26.0" xmlns="http://www.w3.org/2000/svg" xmlns:xlink="http://www.w3.org/1999/xlink"><defs><clipPath id="i0"><path d="M1440,0 L1440,900 L0,900 L0,0 L1440,0 Z"></path></clipPath><clipPath id="i1"><path d="M15.2392318,0 C15.5368699,0 15.8205541,0.0589861908 16.0789545,0.165768412 L16.0789545,17.0354889 C15.8205541,17.1422714 15.5368699,17.2012576 15.2392318,17.2012576 L2.17702684,17.2012576 C0.974659643,17.2012576 0,16.2386307 0,15.0510931 L0,2.15014999 C0,0.962626831 0.974659643,0 2.17702684,0 L15.2392318,0 Z M23.9473684,3.0615439 L23.9473684,14.1397137 C23.9473684,15.5462866 22.4486262,16.4611307 21.1748145,15.8320879 L17.447,13.991 L17.447,3.21 L21.1748145,1.36916966 C22.4486262,0.740126829 23.9473684,1.65495649 23.9473684,3.0615439 Z M5.98684211,4.3003144 C5.08511786,4.3003144 4.35406831,5.02233865 4.35406831,5.9129305 C4.35406831,6.80352234 5.08511786,7.52554657 5.98684211,7.52554657 C6.88856635,7.52554657 7.6196159,6.80352232 7.6196159,5.91293047 C7.6196159,5.02233863 6.88856635,4.3003144 5.98684211,4.3003144 Z"></path></clipPath></defs><g transform="translate(-288.0 -22.0)"><g clip-path="url(#i0)"><g transform="translate(283.0 22.0)"><g transform="translate(5.0 0.0)"><g transform="translate(1.3684210526315788 4.105263157894736)"><g clip-path="url(#i1)"><polygon points="0,0 23.9473684,0 23.9473684,17.2012576 0,17.2012576 0,0" stroke="none" fill="#BBBBBB"></polygon></g></g></g></g></g></g></svg>