<?xml version="1.0" encoding="UTF-8"?><svg version="1.1" width="26px" height="26px" viewBox="0 0 26.0 26.0" xmlns="http://www.w3.org/2000/svg" xmlns:xlink="http://www.w3.org/1999/xlink"><defs><clipPath id="i0"><path d="M1440,0 L1440,900 L0,900 L0,0 L1440,0 Z"></path></clipPath><clipPath id="i1"><path d="M11.3907294,0.270160171 C11.9562204,0.802562333 12.5241755,1.33251667 13.0822745,1.8710384 C13.2140992,1.9934297 13.3089638,1.94447318 13.4272364,1.8710384 C14.0432397,1.4671471 14.6592431,1.06203189 15.2752464,0.664260162 C15.5138912,0.449100966 15.8513338,0.379674278 16.1563691,0.482974668 C16.4614045,0.586275057 16.6858997,0.846002268 16.7425663,1.16116885 C16.9754156,1.81229057 17.2242809,2.45851664 17.4571302,3.10963837 C17.4683635,3.17376763 17.5068354,3.22999219 17.5627279,3.26396335 C17.6186204,3.29793451 17.6865263,3.30636589 17.7491158,3.28710576 C18.5252799,3.17083402 19.3026762,3.06802533 20.0788403,2.95052968 C20.3488509,2.8854587 20.633777,2.95740189 20.8397424,3.14265567 C21.0457078,3.32790945 21.1459966,3.60244445 21.1075659,3.87580792 C21.0398055,4.52692964 20.9597251,5.17805137 20.8747166,5.82672527 C20.8143483,6.28324482 20.8242044,6.30405134 21.2886709,6.43868178 C21.9416344,6.62226873 22.5945979,6.80585568 23.2450975,6.99801002 C23.5410912,7.03786293 23.7907143,7.23688473 23.8939526,7.51533517 C23.9971908,7.79378562 23.9371554,8.10611285 23.7379001,8.32717956 C23.35105,8.91465781 22.97036,9.50703171 22.5724218,10.0871665 C22.4492212,10.26341 22.4492212,10.3649947 22.6241661,10.5143121 C23.2007452,10.9965338 23.7637723,11.4934425 24.3218713,11.9976947 C24.5402943,12.1613931 24.6561998,12.42697 24.6271762,12.697247 C24.5981526,12.967524 24.4284597,13.2028337 24.1801905,13.3170729 C23.5420111,13.7038294 22.9075276,14.0954816 22.2631882,14.4712229 C22.1775429,14.5029622 22.1116972,14.5725655 22.0851205,14.6594526 C22.0585438,14.7463396 22.0742767,14.8405692 22.1276674,14.9142794 C22.4061009,15.5384751 22.6685183,16.1700142 22.9333998,16.8003294 C23.0838818,17.0549084 23.0835536,17.3705359 22.9325424,17.6248054 C22.7815313,17.879075 22.5035924,18.0319882 22.2065158,18.0242424 C21.4903093,18.1188917 20.7720494,18.2004859 20.0517362,18.269025 C19.8053349,18.2935033 19.6722781,18.366938 19.6587261,18.6361989 C19.6279259,19.2640663 19.5700216,19.8907097 19.5256694,20.5185771 C19.5260453,20.7263043 19.4841388,20.9319624 19.4024687,21.1231901 C19.2074414,21.4765554 18.7823079,21.636037 18.4008473,21.4989314 C17.6673926,21.2786271 16.9396874,21.040372 16.2177315,20.7841662 C16.1288032,20.7339203 16.0218749,20.7259588 15.9264009,20.7624748 C15.8309269,20.7989908 15.7569797,20.8761319 15.7249288,20.9726488 C15.381199,21.5846054 15.011597,22.1843227 14.646923,22.785264 C14.5194209,23.0421733 14.2711153,23.2187865 13.9852169,23.2559182 C13.6993184,23.2930498 13.4136546,23.185787 13.2239553,22.9700749 C12.6658563,22.4425684 12.1028292,21.9199575 11.5496582,21.3875554 C11.4166015,21.2651641 11.321737,21.3177923 11.2046964,21.3936749 C10.5960851,21.7926706 9.98665246,22.1900343 9.3763985,22.5857662 C9.13471348,22.811789 8.78690959,22.8862648 8.47295814,22.7792215 C8.15900669,22.6721781 7.93054288,22.4012208 7.87951041,22.0753945 C7.65898121,21.4475271 7.41257988,20.8282271 7.19205069,20.2003597 C7.12552233,20.0094293 7.03188982,19.9213076 6.90622514,19.9629206 C6.07585266,20.0828641 5.3255606,20.1905684 4.57650055,20.3056163 C4.29894172,20.3819991 4.0013422,20.3118305 3.78793716,20.1196872 C3.57453211,19.9275439 3.47506212,19.6402034 3.52436686,19.3583076 C3.58843121,18.7157532 3.67220766,18.0744228 3.75721612,17.4330924 C3.81635244,16.9863642 3.81265642,16.9618859 3.36913403,16.8309272 C2.70138642,16.6342852 2.03281747,16.4425388 1.36342718,16.2556881 C1.08868082,16.2116843 0.857026607,16.0283104 0.752499337,15.7720869 C0.647972068,15.5158634 0.685755914,15.2240107 0.85214442,15.0024012 C1.25131458,14.3814693 1.65828744,13.7654331 2.07306302,13.1542925 C2.19626369,12.9817208 2.17285556,12.8838077 2.01023068,12.7479534 C1.42872354,12.2583882 0.858304453,11.7565838 0.29158139,11.2498838 C0.0886161723,11.0899948 -0.0198240252,10.8394394 0.00300138327,10.5831082 C0.0258267918,10.3267769 0.176858686,10.099024 0.404926003,9.97701431 C1.06199622,9.5690433 1.72276246,9.16963969 2.38722472,8.77880346 C2.46409284,8.7492042 2.5230189,8.68617392 2.5470607,8.60783487 C2.5711025,8.52949582 2.55759631,8.44452761 2.51042538,8.37735999 C2.23322389,7.75194044 1.97450249,7.11917741 1.70346102,6.49131003 C1.54250025,6.23582817 1.53485155,5.9134116 1.68351874,5.65068062 C1.83218593,5.38794963 2.11342726,5.22686167 2.41679288,5.23067963 C3.12273269,5.13031876 3.83483254,5.06177963 4.54446838,4.9932405 C4.79086971,4.96998616 4.95349459,4.9369405 4.96458265,4.6260666 C4.98675877,3.99819922 5.05205512,3.37155576 5.10010338,2.74368838 C5.09372722,2.51830679 5.14412214,2.29491266 5.24671217,2.09379057 C5.45463116,1.77112781 5.85856995,1.63280604 6.22246145,1.75966231 C6.96166544,1.98241448 7.70086944,2.22474926 8.43144939,2.47932317 C8.51421479,2.52602605 8.6135554,2.53390113 8.7027288,2.50082843 C8.79190221,2.46775574 8.86174366,2.39713429 8.89345189,2.30797534 C9.24580579,1.69601884 9.62156782,1.08406233 9.98254577,0.472105819 C10.111095,0.22176831 10.3540139,0.0490399915 10.6339991,0.00888769478 C10.9139844,-0.031264602 11.1961598,0.0661606783 11.3907294,0.270160171 Z M15.4465113,6.16706838 C15.3447149,6.1912219 15.2600192,6.26092808 15.2173116,6.35570419 L15.0295875,6.64176295 C13.9189899,8.3326333 12.8083923,10.0235036 11.6977948,11.714374 C10.5689635,13.4348366 9.44137549,15.1561213 8.31503065,16.8782279 C8.2536311,16.9530032 8.2186889,17.0457071 8.21557415,17.1420925 C8.20807934,17.2498989 8.26932891,17.3492159 8.36724531,17.3960929 C8.51891647,17.4885688 8.67307405,17.5736466 8.82225879,17.6685885 C9.11565546,17.8547733 9.24867853,17.8350452 9.4438619,17.5452874 C9.81682377,16.9830339 10.1773536,16.4133824 10.547829,15.851129 C11.9733722,13.68596 13.3993297,11.5212021 14.8257016,9.3568552 C15.3229841,8.60348491 15.8115642,7.8464156 16.3026306,7.08934628 C16.4940844,6.79342342 16.4605178,6.65902512 16.1497163,6.47284032 C16.0129636,6.39146153 15.8724813,6.31501479 15.7369718,6.23240299 C15.655641,6.16705782 15.5483077,6.14291486 15.4465113,6.16706838 Z M14.5753668,12.425253 C13.4520703,13.6550176 13.3831452,15.4978809 14.4115458,16.8053698 C14.8691086,17.4031447 15.5779101,17.7646463 16.3386806,17.7882433 C17.0994511,17.8118403 17.8300383,17.4949846 18.3250475,16.9267558 C18.8750925,16.3494197 19.1737102,15.5836506 19.1571542,14.7929182 C19.1785132,14.1392317 19.0120815,13.4965092 18.6760925,12.9363518 C18.2836362,12.2305821 17.5704455,11.7527154 16.7585563,11.6515246 C15.9466671,11.5503339 15.1346718,11.8381072 14.5753668,12.425253 Z M16.5588433,13.0066349 C16.8943103,13.0422067 17.1960698,13.2183703 17.3828403,13.4876746 C17.6666145,13.8530868 17.8095035,14.3013754 17.7872095,14.7563103 C17.8015583,15.2131526 17.6314033,15.657692 17.3121738,15.997367 C17.1163702,16.2441107 16.8187577,16.3977021 16.4959428,16.4186062 C16.173128,16.4395103 15.8566446,16.3256851 15.6279566,16.1064296 C14.8543311,15.3165165 14.8618076,14.0846392 15.6449689,13.3033964 C15.8887025,13.0797414 16.2233764,12.9710631 16.5588433,13.0066349 Z M6.38930667,6.24246196 C5.21962401,7.4971522 5.16434252,9.40822434 6.25959699,10.7265043 C6.69042774,11.2468673 7.31846345,11.5710923 7.99796696,11.6239421 C8.67747047,11.6767919 9.34936782,11.4536719 9.85774366,11.0063576 C10.4871887,10.4778191 10.8731087,9.72110735 10.9278486,8.90809669 C11.0007023,8.13473312 10.8124015,7.360881 10.397336,6.70121693 C9.99506347,6.02859949 9.29620756,5.58045738 8.50906635,5.49036199 C7.72192514,5.40026661 6.93739385,5.67862173 6.38930667,6.24246196 Z M8.98722381,7.14298709 C9.78676076,7.9380576 9.77453739,9.19924571 8.95972778,9.97998539 C8.71332957,10.1947323 8.38077956,10.2950121 8.0502564,10.2542349 C7.71973324,10.2134577 7.42462779,10.0357428 7.24318992,9.76821299 C6.96554706,9.4097127 6.82460764,8.97100398 6.84384283,8.5251466 C6.82452484,8.0690793 6.98959023,7.62342863 7.30472866,7.28082711 C7.49599899,7.03096833 7.79078723,6.87243605 8.11324917,6.84601805 C8.43571111,6.81960005 8.75436406,6.92787557 8.98722381,7.14298709 Z"></path></clipPath></defs><g transform="translate(-880.0 -22.0)"><g clip-path="url(#i0)"><g transform="translate(869.0 22.0)"><g transform="translate(11.0 0.0)"><g transform="translate(0.6842105263157894 1.3684210526315788)"><g clip-path="url(#i1)"><polygon points="0,0 24.6315789,0 24.6315789,23.2631579 0,23.2631579 0,0" stroke="none" fill="#BBBBBB"></polygon></g></g></g></g></g></g></svg>