<?xml version="1.0" encoding="UTF-8"?><svg version="1.1" width="26px" height="26px" viewBox="0 0 26.0 26.0" xmlns="http://www.w3.org/2000/svg" xmlns:xlink="http://www.w3.org/1999/xlink"><defs><clipPath id="i0"><path d="M1440,0 L1440,900 L0,900 L0,0 L1440,0 Z"></path></clipPath><clipPath id="i1"><path d="M11.6315789,0 L11.9140796,0.00362383371 C18.2050546,0.159308707 23.2572609,5.30447395 23.2631579,11.6315789 C23.2631579,18.0555226 18.0555226,23.2631579 11.6315789,23.2631579 C5.20763528,23.2631579 0,18.0555226 0,11.6315789 C0,5.30210504 5.05559575,0.153428786 11.3489715,0.00336596234 L11.6315789,0 Z M16.1294281,20.8937961 L15.6110995,21.0651699 C14.6162829,21.3811468 13.606939,21.6493304 12.5865335,21.8688073 L11.9200787,22.0038334 L11.817501,22.2703523 L11.9812397,22.2679847 C13.4933594,22.2201156 14.9776485,21.8479855 16.33349,21.1768185 L16.4078533,21.138334 L16.1294281,20.8937961 Z M4.15897638,17.6158889 L3.09656444,17.9831538 L3.14004046,18.0433825 C4.92659328,20.4167126 7.62666226,21.9337728 10.5844763,22.2271138 L10.7679113,22.2419602 L10.935516,21.8041732 L9.55254869,20.499971 L4.15897638,17.6158889 Z M20.0914919,15.6760713 L17.2522876,18.0518442 L16.8529673,20.219714 L17.3136511,20.6236138 L17.4908136,20.511784 C19.1131357,19.4425735 20.4140622,17.9458882 21.2518481,16.1859863 L21.3096022,16.0579901 L20.0914919,15.6760713 Z M7.98732283,11.5995234 L5.09957729,13.4587443 L5.02447576,16.9592085 L9.27503937,19.2269084 L12.3349689,16.3080232 L11.6498964,13.2297762 L7.98732283,11.5995234 Z M15.2144716,10.110315 L12.61431,13.0191256 L13.3048777,16.1294281 L16.8630419,17.0901782 L19.4558765,14.9131496 L18.8486531,11.2203523 L15.2144716,10.110315 Z M5.87165769,4.69567758 L3.89520514,5.13987567 L3.73508756,5.38489799 C2.76879972,6.91656663 2.22331357,8.67612554 2.15374507,10.4857888 L2.14772068,10.7541732 L4.70392043,12.5419561 L7.43963116,10.7853129 L7.89115624,6.63366349 L5.87165769,4.69567758 Z M1.28038956,9.14406962 L1.26738094,9.19905044 C1.11145647,9.86084975 1.01904057,10.53877 0.992975925,11.2236819 L0.98639453,11.5546457 L1.18055947,11.1873809 L1.17043887,10.8861762 C1.16126135,10.4149628 1.18368393,9.9452709 1.23694325,9.48012939 L1.28038956,9.14406962 Z M14.7144053,3.02237878 L13.4431745,5.40639453 L15.5954745,9.20085371 L19.143564,10.282499 L20.4001409,8.40953999 L20.357558,8.18461182 C20.1465466,7.2013405 19.6888465,6.2106295 19.0502668,5.24271697 L18.8533323,4.9530574 C18.3789019,4.27526185 17.8818601,3.69721931 17.4596304,3.27100853 L17.3530336,3.16525487 L14.7144053,3.02237878 Z M20.4505139,5.68207211 L20.58525,5.95506106 C20.8782589,6.57751378 21.1124186,7.22824085 21.2834652,7.89889927 L21.3590593,8.21995441 L21.7867717,8.44983838 L21.7025345,8.18970165 C21.4336525,7.4077843 21.0757322,6.66238953 20.6376243,5.96755471 L20.4505139,5.68207211 Z M11.6315789,0.989891805 C10.1968604,0.988283993 8.77825563,1.27844514 7.46148085,1.84132766 L7.21157895,1.95263987 L6.65014919,4.07746374 L8.54325736,5.89180688 L12.5273021,5.02264401 L13.8214298,2.59008703 L12.6408703,1.03676751 L12.3524501,1.01407024 C12.2308989,1.00605397 12.1101978,1.00001104 11.9901262,0.995972173 L11.6315789,0.989891805 Z"></path></clipPath></defs><g transform="translate(-214.0 -22.0)"><g clip-path="url(#i0)"><g transform="translate(203.0 22.0)"><g transform="translate(11.0 0.0)"><g transform="translate(1.3684210526315788 1.3684210526315788)"><g clip-path="url(#i1)"><polygon points="0,0 23.2631579,0 23.2631579,23.2631579 0,23.2631579 0,0" stroke="none" fill="#4C9EEA"></polygon></g></g></g></g></g></g></svg>