<?xml version="1.0" encoding="UTF-8"?><svg version="1.1" width="26px" height="26px" viewBox="0 0 26.0 26.0" xmlns="http://www.w3.org/2000/svg" xmlns:xlink="http://www.w3.org/1999/xlink"><defs><clipPath id="i0"><path d="M1440,0 L1440,900 L0,900 L0,0 L1440,0 Z"></path></clipPath><clipPath id="i1"><path d="M14.1827999,0.000780077094 L14.3272557,0.00247632541 C14.5020982,0.0118479238 14.6783279,0.0479006962 14.8501228,0.113383254 L23.5257703,3.41531449 C24.4094384,3.75153017 24.856358,4.73962827 24.5190249,5.6107987 L19.6939232,18.0719389 C19.4221898,18.7737223 18.7212242,19.1942498 17.9967786,19.1554193 C17.8219361,19.1460477 17.6457151,19.1098252 17.4739115,19.0445124 L8.79836348,15.7425865 C7.91470388,15.4062013 7.46777585,14.4182727 7.80511758,13.5469328 L12.6301198,1.08578726 C12.9018532,0.384003855 13.6028101,-0.0363541257 14.3272557,0.00247632541 Z M4.97476586,2.29494207 C4.94875688,2.43011604 4.91751837,2.56782875 4.91028119,2.70906453 L4.24401147,15.7115158 L4.24017926,15.8914018 C4.25215895,17.2633936 5.20519666,18.4648269 6.49399983,18.7966173 L5.42655802,19.0883657 C5.25692141,19.1339669 5.08546494,19.1508806 4.91854151,19.1419335 C4.22656726,19.1048435 3.6012946,18.6248297 3.41239713,17.9162807 L0.0563800634,5.33639501 C-0.178127955,4.45692881 0.340404329,3.54481692 1.21295401,3.30999639 Z M7.7369105,0.0703819777 L7.86897725,0.071126777 L11.4476486,0.262944392 C11.3921899,0.345074934 11.3393193,0.497975022 11.2951768,0.624281924 L6.92483451,13.121308 C6.40910093,14.5962978 6.99473278,16.1935481 8.2297326,16.9404684 L7.00791892,16.8749789 C6.16629155,16.8298675 5.49388743,15.978219 5.54172418,15.0446707 L6.22593671,1.69206008 C6.27377346,0.758511793 7.02734988,0.0260153544 7.86897725,0.071126777 Z M15.2438008,5.29039342 C15.1465348,5.28472658 15.044866,5.29011367 14.9409728,5.30667866 L14.783737,5.33992507 C14.7045573,5.36075549 14.6247391,5.38790835 14.5452013,5.42143595 L14.3867721,5.49700631 C13.1266872,6.16981438 12.0952557,8.48348318 15.056799,12.6522473 L15.356886,12.5852268 C21.0550407,11.2553223 20.7627205,7.96727969 19.6613192,7.04951128 C18.7172013,6.26271782 17.74585,6.5245699 17.061236,7.22867334 C16.8988245,6.28944399 16.4527171,5.36123898 15.2438008,5.29039342 Z"></path></clipPath></defs><g transform="translate(-362.0 -22.0)"><g clip-path="url(#i0)"><g transform="translate(351.0 22.0)"><g transform="translate(11.0 0.0)"><g transform="translate(0.6842105263157894 4.105263157894736)"><g clip-path="url(#i1)"><polygon points="0,0 24.6315789,0 24.6315789,19.1578947 0,19.1578947 0,0" stroke="none" fill="#BBBBBB"></polygon></g></g></g></g></g></g></svg>