<?xml version="1.0" encoding="UTF-8"?><svg version="1.1" width="26px" height="26px" viewBox="0 0 26.0 26.0" xmlns="http://www.w3.org/2000/svg" xmlns:xlink="http://www.w3.org/1999/xlink"><defs><clipPath id="i0"><path d="M1440,0 L1440,900 L0,900 L0,0 L1440,0 Z"></path></clipPath><clipPath id="i1"><path d="M11.96,0 C14.684065,0 17.0624804,1.43394214 18.3351191,3.56530571 L21.52,3.56571429 C22.8454834,3.56571429 23.92,4.64023089 23.92,5.96571429 L23.92,18.1028571 C23.92,19.4283405 22.8454834,20.5028571 21.52,20.5028571 L2.4,20.5028571 C1.0745166,20.5028571 1.05050332e-15,19.4283405 0,18.1028571 L0,5.96571429 C-1.623249e-16,4.64023089 1.0745166,3.56571429 2.4,3.56571429 L5.5848809,3.56530571 C6.85751957,1.43394214 9.23593499,0 11.96,0 Z M8.28,8.91428571 L3.56,8.91428571 C3.1181722,8.91428571 2.76,9.27245791 2.76,9.71428571 L2.76,16.1371429 C2.76,16.5789707 3.1181722,16.9371429 3.56,16.9371429 L8.28,16.9371429 L8.28,8.91428571 Z M20.36,8.91428571 L15.64,8.91428571 L15.64,16.9371429 L20.36,16.9371429 C20.8018278,16.9371429 21.16,16.5789707 21.16,16.1371429 L21.16,9.71428571 C21.16,9.27245791 20.8018278,8.91428571 20.36,8.91428571 Z M14.72,8.91428571 L9.2,8.91428571 L9.2,16.9371429 L14.72,16.9371429 L14.72,8.91428571 Z M11.96,10.2514286 L12.7711436,11.843943 L14.584916,12.0993146 L13.272458,13.3389142 L13.5822873,15.0892569 L11.96,14.2628571 L10.3377127,15.0892569 L10.647542,13.3389142 L9.33508402,12.0993146 L11.1488564,11.843943 L11.96,10.2514286 Z M5.52,10.6971429 L6.19595304,12.0242382 L7.70742999,12.2370478 L6.61371499,13.2700475 L6.87190608,14.7286664 L5.52,14.04 L4.16809392,14.7286664 L4.42628501,13.2700475 L3.33257001,12.2370478 L4.84404696,12.0242382 L5.52,10.6971429 Z M18.4,10.6971429 L19.075953,12.0242382 L20.58743,12.2370478 L19.493715,13.2700475 L19.7519061,14.7286664 L18.4,14.04 L17.0480939,14.7286664 L17.306285,13.2700475 L16.21257,12.2370478 L17.724047,12.0242382 L18.4,10.6971429 Z"></path></clipPath></defs><g transform="translate(-584.0 -22.0)"><g clip-path="url(#i0)"><g transform="translate(579.0 22.0)"><g transform="translate(5.0 0.0)"><g transform="translate(1.0400000000002994 3.120000000000001)"><g clip-path="url(#i1)"><polygon points="0,0 23.92,0 23.92,20.5028571 0,20.5028571 0,0" stroke="none" fill="#BBBBBB"></polygon></g></g></g></g></g></g></svg>