<?xml version="1.0" encoding="UTF-8"?>
<svg width="20px" height="20px" viewBox="0 0 20 20" version="1.1" xmlns="http://www.w3.org/2000/svg" xmlns:xlink="http://www.w3.org/1999/xlink">
    <title>1BEF6892-6FF3-48E1-B23A-473E443D2FB3</title>
    <g id="0" stroke="none" stroke-width="1" fill="none" fill-rule="evenodd">
        <g id="0.1_首页(已登入_下拉语言)" transform="translate(-1075.000000, -75.000000)" fill-rule="nonzero">
            <g id="选单/--语系选单" transform="translate(1055.000000, 60.000000)">
                <g id="china" transform="translate(20.000000, 15.000000)">
                    <circle id="Oval" fill="#DE2910" cx="9.87804878" cy="9.87804878" r="9.87804878"></circle>
                    <polygon id="Path" fill="#FFDE00" points="10.7512195 1.44390244 10.6878049 2.14146341 11.3268293 2.41463415 10.6439024 2.57073171 10.5804878 3.26341463 10.2243902 2.66341463 9.54634146 2.8195122 10.004878 2.29268293 9.64878049 1.69756098 10.2878049 1.97073171"></polygon>
                    <polygon id="Path" fill="#FFDE00" points="10.7121951 8.33658537 10.6829268 9.03414634 11.3365854 9.27804878 10.6634146 9.46829268 10.6341463 10.1658537 10.2487805 9.5804878 9.57560976 9.77073171 10.0097561 9.22439024 9.62439024 8.64390244 10.2780488 8.88780488"></polygon>
                    <polygon id="Path" fill="#FFDE00" points="13.0390244 3.63902439 12.7121951 4.25365854 13.195122 4.75609756 12.5073171 4.63414634 12.1804878 5.24878049 12.0829268 4.56097561 11.395122 4.43902439 12.0243902 4.13170732 11.9268293 3.43902439 12.4097561 3.94146341"></polygon>
                    <polygon id="Path" fill="#FFDE00" points="13.2536585 6.93170732 12.702439 7.36097561 12.9414634 8.0195122 12.3609756 7.62439024 11.8097561 8.05365854 12.004878 7.38536585 11.4292683 6.99512195 12.1268293 6.97073171 12.3170732 6.29756098 12.5560976 6.95609756"></polygon>
                    <polygon id="Path" fill="#FFDE00" points="5.42439024 2.35609756 6.07804878 4.3804878 8.2097561 4.3804878 6.48780488 5.63414634 7.14634146 7.66341463 5.42439024 6.4097561 3.69756098 7.66341463 4.35609756 5.63414634 2.63414634 4.3804878 4.76585366 4.3804878"></polygon>
                </g>
            </g>
        </g>
    </g>
</svg>