<?xml version="1.0" encoding="UTF-8"?><svg version="1.1" width="20px" height="20px" viewBox="0 0 20.0 20.0" xmlns="http://www.w3.org/2000/svg" xmlns:xlink="http://www.w3.org/1999/xlink"><defs><clipPath id="i0"><path d="M1440,0 L1440,900 L0,900 L0,0 L1440,0 Z"></path></clipPath><clipPath id="i1"><path d="M16,0 C18.209139,-4.05812251e-16 20,1.790861 20,4 L20,11.5555556 C20,13.7646946 18.209139,15.5555556 16,15.5555556 L4,15.5555556 C1.790861,15.5555556 2.705415e-16,13.7646946 0,11.5555556 L0,4 C-2.705415e-16,1.790861 1.790861,4.05812251e-16 4,0 L16,0 Z"></path></clipPath><clipPath id="i2"><path d="M14.4821944,-3.92574862e-13 C15.3348169,0.015965631 16.013574,0.699343114 16.0001944,1.52833333 L16.0001944,10.1402778 C16.0141272,10.9684065 15.3359499,11.6512312 14.4841944,11.6666667 L1.51819445,11.6666667 C0.665571959,11.650701 -0.0131850868,10.9673236 0.000194448084,10.1383333 L0.000194448084,1.52833333 C-0.0131850868,0.699343114 0.665571959,0.015965631 1.51819445,-3.92574862e-13 L14.4821944,-3.92574862e-13 Z M7.715,0.833 L1.51819445,0.833194444 C1.33165463,0.835743499 1.15387866,0.910581216 1.02432984,1.04109488 C0.894781012,1.17160854 0.824178347,1.34699929 0.828194448,1.52833333 L0.828,2.222 L2.33019445,2.2225 C3.17031354,2.22517957 3.84975023,2.88835222 3.84919513,3.70513889 L3.84919513,7.96444444 C3.84864821,8.78047228 3.16953302,9.4424618 2.33019445,9.44513889 L0.828,9.445 L0.828194448,10.1402778 C0.824178347,10.3216118 0.894781012,10.4970026 1.02432984,10.6275162 C1.15387866,10.7580299 1.33165463,10.8328676 1.51819445,10.8354167 L7.715,10.835 L7.71491207,7.55909173 C7.093809,7.43351246 6.56265796,7.02025475 6.30724201,6.43701843 C5.99494601,5.72389783 6.15676789,4.8980045 6.7168585,4.34645117 C6.99514252,4.07240895 7.3443403,3.89307895 7.7157366,3.81811362 L7.715,0.833 Z M14.4821944,0.833194444 L8.543,0.833 L8.54313578,3.82399859 C8.65078576,3.8473743 8.75736004,3.87978878 8.86173258,3.92146515 C9.59916842,4.21592618 10.0805304,4.91437886 10.0801944,5.68944444 C10.0850284,6.60250796 9.42641529,7.36872871 8.54368469,7.55547373 L8.543,10.835 L14.4821944,10.8354167 C14.6687343,10.8328676 14.8465102,10.7580299 14.9760591,10.6275162 C15.1056079,10.4970026 15.1762105,10.3216118 15.1721944,10.1402778 L15.172,9.444 L13.9291944,9.44513889 C13.0890754,9.44245932 12.4096387,8.77928667 12.4101938,7.9625 L12.4101938,3.70416667 C12.4096387,2.88738 13.0890754,2.22420735 13.9291944,2.22152778 L15.172,2.221 L15.1721944,1.52833333 C15.1762105,1.34699929 15.1056079,1.17160854 14.9760591,1.04109488 C14.8465102,0.910581216 14.6687343,0.835743499 14.4821944,0.833194444 Z M2.33019445,3.05569444 L0.828,3.055 L0.828,8.611 L2.33019445,8.61194444 C2.70478243,8.61736895 3.01353436,8.32761923 3.02119445,7.96347222 L3.02119445,3.70416667 C3.01803982,3.52907808 2.94345902,3.36238229 2.81386518,3.24076434 C2.68427134,3.11914638 2.51028457,3.05257276 2.33019445,3.05569444 Z M15.172,3.054 L13.9291944,3.05472222 C13.5546065,3.04929772 13.2458545,3.33904744 13.2381944,3.70319444 L13.2381944,7.9625 C13.2413491,8.13758858 13.3159299,8.30428437 13.4455237,8.42590233 C13.5751176,8.54752028 13.7491043,8.61409391 13.9291944,8.61097222 L15.172,8.61 L15.172,3.054 Z M8.14119445,4.54319444 C7.66301546,4.53727926 7.22852706,4.81277248 7.04130465,5.24059437 C6.85408225,5.66841626 6.95121627,6.16381149 7.2871955,6.49466732 C7.62317472,6.82552315 8.13143868,6.9262941 8.57384509,6.74976488 C9.01625151,6.57323567 9.30515574,6.15437831 9.30521597,5.68944444 C9.30907321,5.0605193 8.78808552,4.54747622 8.14119445,4.54319444 Z"></path></clipPath></defs><g transform="translate(-1372.0 -260.0)"><g clip-path="url(#i0)"><g transform="translate(1110.0 90.0)"><g transform="translate(10.0 160.0)"><g transform="translate(252.0 10.0)"><g transform="translate(0.0 2.2222222222237917)"><g clip-path="url(#i1)"><polygon points="0,0 20,0 20,15.5555556 0,15.5555556 0,0" stroke="none" fill="#999999"></polygon></g></g><g transform="translate(1.9998055519154274 4.166666666661823)"><g clip-path="url(#i2)"><polygon points="1.22124533e-14,-3.92574862e-13 16.0004053,-3.92574862e-13 16.0004053,11.6666667 1.22124533e-14,11.6666667 1.22124533e-14,-3.92574862e-13" stroke="none" fill="#FFFFFF"></polygon></g></g></g></g></g></g></g></svg>